<svg width="300.000000" height="200.000000" viewBox="0 0 300 200" fill="none" xmlns="http://www.w3.org/2000/svg" xmlns:xlink="http://www.w3.org/1999/xlink">
	<desc>
			Created with Pixso.
	</desc>
	<defs>
		<clipPath id="clip3_5">
			<rect id="logo" width="300.000000" height="200.000000" fill="white" fill-opacity="0"/>
		</clipPath>
	</defs>
	<rect id="logo" width="300.000000" height="200.000000" fill="#FFFFFF" fill-opacity="0"/>
	<g clip-path="url(#clip3_5)">
		<circle id="circle" cx="150.000000" cy="100.000000" r="100.000000" fill="#B9E7E7" fill-opacity="1.000000"/>
		<path id="Dima Blog" d="M236.96 97.7L235.55 96.57Q233.67 99.38 231.8 99.38Q230.96 99.38 230.42 98.98Q229.45 98.25 229.45 96.22Q229.45 90.73 234.73 78.16Q240.03 65.6 246.61 52.88L243.66 51.27Q237.15 63.07 230.98 78.57Q224.83 94.08 224.83 98.77Q224.83 100.84 225.76 102.32Q225.91 102.57 226.09 102.8Q226.76 103.64 227.63 104.04Q228.42 104.4 229.38 104.4Q229.97 104.4 230.52 104.27Q231.87 103.95 233.03 102.83Q234.68 101.26 236.96 97.7ZM33.67 63.33Q27.39 60.25 19.6 60.25Q12.44 60.25 7.87 63.2Q5.06 65.02 3.99 67.57Q3.32 69.14 3.32 71Q3.32 71.65 3.43 72.29Q4.13 76.37 9.34 79.69Q13.02 82 17.01 82.91Q19.58 83.5 22.28 83.5Q20.34 91.33 16.59 98.84Q15.45 101.05 15.45 101.59Q15.45 102.12 15.7 102.47Q16.15 103.06 17.39 103.06L20.55 103.06Q23.3 103.06 27.91 103.13Q33.85 103.22 38.36 100.72Q40.43 99.58 42.19 97.91Q43.5 96.66 44.5 95.2Q47.82 90.39 47.82 83.3Q47.82 80.6 47.11 78.1Q45.4 72.04 39.54 67.16Q36.79 64.86 33.67 63.33ZM222.35 93.48L222.41 90.87L218.13 90.87Q217.25 88.75 215.74 87.26Q214.73 86.26 213.43 85.54Q210.23 83.76 203.26 82.7Q207.54 80.68 213.65 76.14Q216.98 73.65 219.22 70.57Q221.48 67.48 221.48 65.11Q221.48 62.76 220.3 61.53Q220.29 61.51 220.27 61.5Q219.92 61.14 219.51 60.88Q218.49 60.25 217.08 60.25Q215.12 60.25 210.93 62.36Q209.09 63.29 207.33 64.35Q205.09 65.71 202.98 67.29Q203.52 65.54 203.52 64.28L200.23 63.74Q199.64 64.74 198.5 68.35Q198.15 69.56 197.78 70.74Q197.42 71.9 197.42 71.98Q190.06 79.01 185.9 85.69Q181.75 92.35 181.75 96.63Q181.75 99.21 183.01 100.24Q183.85 100.92 185.23 100.92Q188.52 100.92 192.17 95.63Q195.82 90.33 198.83 80.75L201.7 71.64Q204.73 68.96 207.84 67.25Q210.96 65.54 212.76 65.54Q213.94 65.54 214.53 66.13Q215.12 66.71 215.12 67.89Q215.12 69.3 213.63 71.18Q212.16 73.04 209.98 74.79Q207.81 76.53 206.02 77.77Q204.26 79.01 202.28 80.19Q200.3 81.35 199.46 82.19Q198.84 82.81 198.68 83.54Q198.63 83.78 198.63 84.04Q198.63 84.36 198.73 84.65Q199.15 85.85 201.31 86.44Q206.2 87.78 208.25 88.86Q210.29 89.92 211.29 91.6L211.29 91.61Q204.86 92.54 198.32 95.19Q191.79 97.84 187.2 101.77Q182.62 105.68 182.62 109.55Q182.62 110.83 183.12 111.86Q183.62 112.89 184.63 113.68Q186.64 115.26 190.52 115.26Q194.41 115.26 200.2 113.01Q206.01 110.77 210.16 107.41Q214.32 104.08 216.08 101.2Q217.87 98.3 218.67 93.62L222.35 93.48ZM12.37 64.88Q14.92 63 19.34 63Q23.78 63 27.61 64.54Q31.85 66.24 35.34 69.84Q38.42 73 40.07 76.79Q41.98 81.17 41.98 86.38Q41.98 92 39.36 95.32Q38.25 96.74 36.81 97.55Q34.86 98.64 32.29 98.64Q27.84 98.64 21.15 98.1Q23.97 91.94 26.57 83.5Q32.67 82.56 34.01 82.09L33.68 79.88Q27.98 80.55 27.45 80.55Q29.19 73.72 29.19 69.56L25.16 69.17Q24.83 71.7 22.76 80.49Q16.85 79.75 13.34 76.9Q10.61 74.7 10 72.01Q9.82 71.23 9.82 70.41Q9.82 67.93 10.99 66.28Q11.54 65.49 12.37 64.88ZM60.98 73.46Q61.87 74.58 64.17 74.58Q64.71 74.58 65.16 74.38Q65.82 74.1 66.29 73.39Q66.79 72.65 66.99 71.84Q67.11 71.32 67.11 70.77Q67.11 69.87 66.73 69.2Q66.51 68.81 66.16 68.5Q65.92 68.27 65.65 68.1Q64.85 67.61 63.76 67.61Q63.04 67.61 62.45 67.88Q61.83 68.17 61.34 68.76Q61.12 69.03 60.95 69.33Q60.41 70.3 60.41 71.57Q60.41 72.75 60.98 73.46ZM115.22 95.62L113.81 94.29Q111 97.63 109.25 97.63Q108.84 97.63 108.5 97.48Q108.17 97.33 107.9 97.04Q107.38 96.44 107.38 95.13Q107.38 93.82 109.88 88.8Q112.4 83.76 112.4 81.58Q112.4 79.41 111.32 78.31Q111.07 78.04 110.76 77.84Q109.82 77.2 108.44 77.2Q101.15 77.2 91.91 92.07Q92.58 89.79 93.74 85.85Q94.92 81.89 94.92 80.55Q94.92 78.84 94.06 77.99Q93.21 77.13 91.5 77.13Q88.34 77.13 84.45 80.45Q80.57 83.76 74.81 92Q75.42 88.39 76.22 85.21Q77.02 82.02 79.1 77.4L76.09 76.33Q74.14 79.69 71.33 88.89Q68.52 98.1 68.19 101.65L72 102.93Q73.47 97.63 78.79 90.14Q84.12 82.63 87.15 82.63Q87.78 82.63 88.28 82.89Q88.57 83.04 88.81 83.27Q89.49 83.91 89.49 85.31Q89.49 86.72 87.28 94.1Q85.07 101.46 85.07 101.65L89.09 103.06Q91.69 97.56 93.1 94.82Q93.9 93.34 95.08 91.14Q96.26 88.93 97.22 87.72Q98.2 86.51 99.37 85.25Q100.54 83.97 101.77 83.4Q103.01 82.83 104.22 82.83Q105.27 82.83 105.94 83.33Q106.05 83.41 106.14 83.5Q106.38 83.73 106.54 84.02Q106.82 84.55 106.78 85.25Q106.64 87.59 104.42 92.08Q102.21 96.57 102.21 98.41Q102.21 99.79 102.84 100.76Q103.05 101.08 103.32 101.36Q103.45 101.48 103.58 101.59Q104.66 102.46 106.43 102.46Q107.01 102.46 107.57 102.36Q111.83 101.66 115.22 95.62ZM196.08 76.87Q194.54 84.84 189.85 92.41Q188.52 94.69 187.54 94.69Q187.23 94.69 187.02 94.54Q186.57 94.24 186.57 93.28Q186.57 91.01 189.52 85.92Q192.46 80.81 196.08 76.87ZM294.37 102.19L294.3 100.59L288.67 102.39Q290.08 95.62 293.78 85.77L291.29 84.36Q289.41 87.78 284.78 92.61Q280.17 97.43 277.89 97.43Q277.16 97.43 276.54 97.18Q275.84 96.9 275.28 96.3Q274.97 95.97 274.75 95.58Q274.21 94.65 274.21 93.41Q274.21 89.32 279.53 84.9Q281 83.69 282.62 82.75Q286.91 80.27 292.29 79.69L291.76 77.33Q286.53 77.33 280.94 80.26Q275.95 82.86 272.48 86.8Q272.06 87.27 271.66 87.77Q267.98 92.35 267.98 96.76Q267.98 99.02 269.04 100.52Q269.25 100.81 269.49 101.07Q269.62 101.2 269.76 101.33Q271.25 102.67 273.94 102.67Q276.88 102.67 280.53 100.26Q284.19 97.84 288.67 91.01Q286.07 99.18 285.06 103.67Q276.21 106.55 270.91 111.53Q266.47 115.73 265.76 120.48Q265.63 121.38 265.63 122.3Q265.63 124.56 266.66 126.16Q266.94 126.59 267.29 126.98Q267.81 127.53 268.43 127.91Q269.84 128.79 271.79 128.79Q273.7 128.79 275.42 128.22Q279.14 126.99 281.98 123.1Q286.14 117.41 288.28 104.6Q293.7 102.59 294.37 102.19ZM147.1 97.37L145.56 96.22Q145.24 96.5 144.7 96.91Q144.16 97.3 143.91 97.5Q143.68 97.7 143.39 97.91Q143.09 98.1 142.88 98.2Q142.69 98.3 142.47 98.37Q142.28 98.43 141.64 98.43Q141.02 98.43 140.38 97.81Q140.11 97.55 139.96 97.23Q139.74 96.78 139.74 96.22Q139.74 93.95 143.89 85.57L141.08 83.91Q138.27 89.31 134.15 93.39Q133.93 93.61 133.71 93.82Q129.29 98.04 126.26 98.04Q125 98.04 124.24 97.42Q123.06 96.47 123.06 94.05Q123.06 90.06 127.7 86.05Q129.76 84.28 132.09 83.02Q135.05 81.43 138.47 80.68L141.28 80.08L141.15 77.87Q135.52 77.94 129.89 80.81Q124.79 83.42 121.33 87.45Q120.97 87.86 120.64 88.29Q117.13 92.75 117.02 97.29Q117.02 97.43 117.02 97.56Q117.02 100.02 118.23 101.45Q118.28 101.5 118.33 101.56Q118.5 101.74 118.69 101.91Q119.97 103 122.17 103Q124.72 103 127.37 101.72Q130.02 100.44 133.64 96.76L136.13 94.21Q135.11 96.89 135.11 98.84Q135.11 101.02 136.2 102.05Q137.19 103 139.07 103Q141.15 103 143.65 101.2Q146.17 99.38 147.1 97.37ZM64.63 95.49L63.29 94.36Q60.08 97.97 58.26 97.97Q57.82 97.97 57.44 97.82Q57.02 97.66 56.66 97.3Q55.99 96.63 55.99 95.06Q55.99 93.48 58.03 87.91Q60.08 82.35 61.49 79.82L58.61 78.07Q58.39 78.48 57.2 80.75Q51.84 91.2 51.84 97.7Q51.84 101.16 53.47 102.33Q54.31 102.93 55.58 102.93Q57.72 102.93 60.37 100.75Q61.44 99.88 62.34 98.85Q63.67 97.33 64.63 95.49ZM263.46 85.49Q263.04 84.24 262.34 83.09L258.86 84.17Q258.92 84.29 258.98 84.42Q260.13 87 260.13 90.11Q260.13 92.75 259.06 94.86Q258.82 95.32 258.53 95.77Q257.62 97.13 256.34 97.72Q255.38 98.17 254.21 98.17Q252.22 98.17 250.93 97.21Q250.46 96.87 250.09 96.4Q250.08 96.39 250.07 96.38Q248.68 94.6 248.68 91.74Q248.68 89.14 249.72 87.05Q250.6 85.26 252.23 83.84Q253.09 83.09 254.06 82.52Q257.08 80.75 261.15 80.75L260.94 78.54Q260.48 78.48 259.33 78.48Q257.63 78.48 256.02 78.86Q251.8 79.87 248.21 83.53Q244.82 86.98 243.75 91.05Q243.25 92.93 243.25 94.95Q243.25 98.44 244.95 100.61Q245.17 100.9 245.43 101.16Q245.78 101.52 246.17 101.83Q248.23 103.4 251.5 103.4Q253.24 103.4 254.83 102.9Q257.87 101.95 260.33 99.15Q262.58 96.59 263.49 93.62Q264.09 91.64 264.09 89.47Q264.09 87.37 263.46 85.49ZM210.62 101.79Q208.67 104.53 205.4 106.74Q199.37 110.9 193.93 110.9Q191.73 110.9 190.45 109.93Q189.85 109.47 189.54 108.87Q189.19 108.2 189.19 107.35Q189.19 103.67 195.68 99.61Q202.18 95.55 212.24 94.36Q212.51 95.29 212.56 96.23Q212.57 96.43 212.57 96.63Q212.57 99.04 210.62 101.79ZM275 112.11Q278.83 108.36 284.67 105.68Q282.79 114.66 280.04 118.6Q277.32 122.51 274.54 122.56Q274.51 122.56 274.48 122.56Q273.74 122.56 273.14 122.28Q272.57 122.03 272.12 121.54Q271.92 121.33 271.76 121.09Q271.19 120.2 271.19 118.94Q271.19 115.85 275 112.11Z" fill="#000000" fill-opacity="1.000000" fill-rule="evenodd"/>
		<path id="ART &amp; TECHNOLOGY" d="M144.41 161.1Q145.48 161.41 146.84 161.41Q148.28 161.41 149.36 161.12Q149.82 160.99 150.2 160.74Q150.72 160.41 151.08 159.84Q151.71 158.86 151.71 156.79L151.71 154.31L150.87 154.31L150.87 156.76Q150.87 158.54 150.36 159.41Q150.05 159.93 149.6 160.23Q149.31 160.42 148.96 160.53Q148.07 160.78 146.88 160.78Q145.72 160.78 144.81 160.53Q144.44 160.42 144.14 160.21Q143.7 159.91 143.4 159.41Q142.89 158.54 142.89 156.76L142.89 144.65Q142.89 142.86 143.4 142.01Q143.7 141.5 144.14 141.2Q144.44 141 144.81 140.89Q145.72 140.62 146.88 140.62Q148.04 140.62 148.94 140.89Q149.33 141 149.64 141.22Q150.07 141.52 150.36 142.01Q150.87 142.86 150.87 144.65L150.87 147.73L151.71 147.73L151.71 144.58Q151.71 142.59 151.08 141.62Q150.71 141.07 150.2 140.73Q149.83 140.48 149.38 140.35Q148.32 140.03 146.92 140.03Q145.55 140.03 144.45 140.33Q143.92 140.47 143.51 140.76Q143.05 141.08 142.71 141.59Q142.08 142.55 142.08 144.58L142.08 156.79Q142.08 158.83 142.71 159.81Q143.09 160.38 143.61 160.72Q143.97 160.97 144.41 161.1ZM191.69 161.1Q192.76 161.41 194.12 161.41Q195.55 161.41 196.64 161.12Q197.1 160.99 197.48 160.74Q197.99 160.41 198.35 159.84Q198.99 158.86 198.99 156.79L198.99 144.58Q198.99 142.59 198.35 141.62Q197.99 141.07 197.48 140.73Q197.11 140.48 196.65 140.35Q195.59 140.03 194.19 140.03Q192.83 140.03 191.72 140.33Q191.2 140.47 190.78 140.76Q190.32 141.08 189.99 141.59Q189.36 142.55 189.36 144.58L189.36 156.79Q189.36 158.83 189.99 159.81Q190.36 160.38 190.88 160.72Q191.25 160.97 191.69 161.1ZM218.33 161.1Q219.4 161.41 220.76 161.41Q222.19 161.41 223.28 161.12Q223.74 160.99 224.12 160.74Q224.63 160.41 224.99 159.84Q225.63 158.86 225.63 156.79L225.63 144.58Q225.63 142.59 224.99 141.62Q224.63 141.07 224.12 140.73Q223.75 140.48 223.29 140.35Q222.23 140.03 220.83 140.03Q219.47 140.03 218.36 140.33Q217.84 140.47 217.42 140.76Q216.96 141.08 216.63 141.59Q216 142.55 216 144.58L216 156.79Q216 158.83 216.63 159.81Q217 160.38 217.52 160.72Q217.89 160.97 218.33 161.1ZM233.61 161.1Q234.68 161.41 236 161.41Q237.23 161.41 238.09 161.06Q238.43 160.92 238.72 160.73Q239.18 160.42 239.54 159.98Q239.71 159.74 239.93 159.41Q240.14 159.07 240.31 158.76L240.34 161L240.94 161L240.94 151.65L236.7 151.65L236.7 152.28L240.1 152.28L240.1 156.76Q240.1 158.36 239.33 159.36Q239.17 159.56 238.98 159.74Q238.68 160.01 238.34 160.22Q237.4 160.78 236.11 160.78Q234.95 160.78 234.04 160.53Q233.67 160.42 233.37 160.21Q232.93 159.91 232.63 159.41Q232.12 158.54 232.12 156.76L232.12 144.68Q232.12 142.9 232.63 142.04Q232.93 141.54 233.37 141.24Q233.67 141.03 234.04 140.92Q234.95 140.66 236.11 140.66Q237.3 140.66 238.19 140.92Q238.54 141.03 238.83 141.22Q239.28 141.52 239.59 142.04Q240.1 142.9 240.1 144.68L240.1 147L240.94 147L240.94 144.58Q240.94 142.59 240.33 141.62Q239.98 141.08 239.5 140.75Q239.11 140.49 238.64 140.35Q237.58 140.03 236.18 140.03Q234.78 140.03 233.68 140.33Q233.15 140.47 232.74 140.76Q232.28 141.08 231.94 141.59Q231.31 142.55 231.31 144.58L231.31 156.83Q231.31 158.83 231.93 159.81Q232.28 160.36 232.77 160.7Q233.15 160.96 233.61 161.1ZM49.91 140.31L44.7 161L45.46 161L46.87 155.47L53.48 155.47L54.92 161L55.75 161L50.57 140.31L49.91 140.31ZM60.18 140.31L60.18 161L61.03 161L61.03 150.99L64.56 150.99Q65.41 150.99 65.96 151.4Q66.23 151.62 66.43 151.94Q67.01 152.88 67.36 153.96L69.53 161L70.44 161L68.2 153.89Q67.71 152.28 67.13 151.49Q66.93 151.23 66.67 151.05Q66.39 150.86 66.02 150.79Q67.43 150.67 68.42 149.97Q68.44 149.95 68.46 149.94Q68.72 149.75 68.93 149.51Q69.67 148.64 69.67 147.14L69.67 143.71Q69.67 142.09 68.87 141.31Q68.73 141.17 68.56 141.06Q68.44 140.98 68.31 140.9Q67.29 140.31 65.92 140.31L60.18 140.31ZM76.9 140.97L76.9 161L77.74 161L77.74 140.97L81.52 140.97L81.52 140.31L73.22 140.31L73.22 140.97L76.9 140.97ZM120.52 140.97L120.52 161L121.36 161L121.36 140.97L125.14 140.97L125.14 140.31L116.84 140.31L116.84 140.97L120.52 140.97ZM129.29 140.31L129.29 161L137.8 161L137.8 160.33L130.17 160.33L130.17 150.42L136.05 150.42L136.05 149.76L130.17 149.76L130.17 140.97L137.8 140.97L137.8 140.31L129.29 140.31ZM157.5 140.31L157.5 161L158.35 161L158.35 150.46L166.36 150.46L166.36 161L167.17 161L167.17 140.31L166.36 140.31L166.36 149.76L158.35 149.76L158.35 140.31L157.5 140.31ZM173.62 140.31L173.62 161L174.47 161L174.47 142.59L182.45 161L183.29 161L183.29 140.31L182.48 140.31L182.48 159.11L174.4 140.31L173.62 140.31ZM205.06 140.31L205.06 161L212.48 161L212.48 160.33L205.9 160.33L205.9 140.31L205.06 140.31ZM248.69 151.72L248.69 161L249.54 161L249.54 151.76L253.7 140.31L252.79 140.31L249.22 150.49L249.15 150.74L249.08 150.49L245.79 140.31L244.85 140.31L248.69 151.72ZM196.24 160.53Q195.35 160.78 194.16 160.78Q192.96 160.78 192.07 160.53Q191.73 160.43 191.45 160.24Q190.99 159.94 190.67 159.41Q190.17 158.54 190.17 156.76L190.17 144.68Q190.17 142.9 190.67 142.04Q190.99 141.51 191.45 141.2Q191.73 141.02 192.07 140.92Q192.96 140.66 194.16 140.66Q195.31 140.66 196.22 140.92Q196.61 141.03 196.92 141.25Q197.35 141.55 197.64 142.04Q198.15 142.9 198.15 144.68L198.15 156.76Q198.15 158.54 197.64 159.41Q197.33 159.93 196.88 160.23Q196.59 160.42 196.24 160.53ZM222.88 160.53Q221.99 160.78 220.8 160.78Q219.6 160.78 218.71 160.53Q218.37 160.43 218.09 160.24Q217.63 159.94 217.31 159.41Q216.81 158.54 216.81 156.76L216.81 144.68Q216.81 142.9 217.31 142.04Q217.63 141.51 218.09 141.2Q218.37 141.02 218.71 140.92Q219.6 140.66 220.8 140.66Q221.95 140.66 222.86 140.92Q223.25 141.03 223.56 141.25Q223.99 141.55 224.28 142.04Q224.79 142.9 224.79 144.68L224.79 156.76Q224.79 158.54 224.28 159.41Q223.97 159.93 223.52 160.23Q223.23 160.42 222.88 160.53ZM65.15 150.32L61.03 150.32L61.03 140.94L65.68 140.94Q67.26 140.94 68.04 141.67Q68.12 141.74 68.18 141.82Q68.83 142.54 68.83 143.85L68.83 146.85Q68.83 148.5 68.03 149.42Q67.22 150.32 65.15 150.32ZM53.41 154.87L46.97 154.87L50.22 142.31L53.41 154.87ZM94.6 160.56Q95.7 161.31 97.66 161.31Q98.6 161.31 99.62 161.03Q99.79 160.98 99.96 160.92Q100.78 160.6 101.44 159.91Q102.24 159.07 102.53 157.42Q103.86 158.86 104.94 159.91Q106.02 160.96 106.45 161.06L106.45 160.05Q105.88 159.66 104.88 158.64Q103.89 157.6 102.66 156.27Q102.7 155.75 102.7 155.28L102.7 151.96L106.45 151.96L106.45 151.23L101.86 151.23L101.86 155.4Q101.69 155.18 101.18 154.63Q100.67 154.07 100.01 153.3Q99.34 152.53 98.67 151.74Q98.01 150.95 97.48 150.32Q96.96 149.69 96.78 149.41Q96.73 149.31 96.67 149.21Q96.31 148.52 96.13 147.73Q95.96 146.89 96.14 146.13Q96.15 146.06 96.17 146Q96.25 145.72 96.39 145.47Q96.65 144.99 97.13 144.64Q97.87 144.09 99.27 144.09Q100.18 144.09 100.98 144.27Q101.79 144.44 102.35 144.62Q102.91 144.79 103.05 144.86L103.05 144.06Q102.88 143.91 102.36 143.74Q101.86 143.56 101.07 143.43Q100.29 143.28 99.24 143.28Q97.07 143.28 96.07 144.26Q95.82 144.51 95.63 144.79Q95.07 145.65 95.07 146.89Q95.07 148.01 95.4 148.82Q95.73 149.62 96.05 149.94Q95.07 150.23 94.36 150.83Q93.87 151.24 93.51 151.79Q92.62 153.15 92.62 155.53Q92.62 157.22 93.06 158.52Q93.3 159.23 93.74 159.78Q94.1 160.22 94.6 160.56ZM100.25 159.86Q99.24 160.61 97.66 160.61Q96.34 160.61 95.39 160.02Q94.98 159.76 94.63 159.39Q93.49 158.16 93.49 155.6Q93.49 153.3 94.33 152.18Q94.7 151.69 95.17 151.35Q95.79 150.91 96.58 150.71Q97.35 151.65 98.82 153.28Q100.29 154.9 101.79 156.62Q101.74 158.09 101.02 159.08Q100.85 159.31 100.64 159.53Q100.46 159.71 100.25 159.86Z" fill="#3B3A3A" fill-opacity="1.000000" fill-rule="evenodd"/>
	</g>
</svg>
